<svg t="1744355438959" class="icon" viewBox="0 0 1024 1024" version="1.1" xmlns="http://www.w3.org/2000/svg"
  p-id="20985" width="16" height="16">
  <path
    d="M880 912H144a32 32 0 0 1-32-32V144a32 32 0 0 1 32-32h736a32 32 0 0 1 32 32v736a32 32 0 0 1-32 32zM303.36 184H184v656H303.36V184z m72.32 0v656h464.32V184H375.68z m312.576 162.432L488.832 503.04a11.328 11.328 0 0 0 0 17.728l199.424 156.8c7.424 5.76 18.304 0.576 18.304-8.832V355.328c0-9.408-10.88-14.72-18.304-8.96z"
    fill="#8a8a8a" p-id="20986"></path>
</svg>